<svg viewBox="0 0 109 120" fill="none" xmlns="http://www.w3.org/2000/svg">
  <path d="M108.282 53.924L105.482 66.1243C105.113 67.7474 104.293 69.2317 103.11 70.4264L54.7404 119.409C54.3723 119.789 53.8593 120 53.3222 120H38.1264C36.8349 120 35.8875 118.811 36.1772 117.562L45.1088 78.7108C45.32 77.7997 46.1287 77.1601 47.058 77.1601L61.4391 77.1722C62.7306 77.1842 63.6781 78.3729 63.3884 79.6219L58.1501 102.52L69.1517 82.5L69.1637 82.4879L84.1363 68.6102H2.00167C0.710205 68.6102 -0.237272 67.4216 0.052402 66.1726L2.74999 54.28C3.17847 52.3974 4.19836 50.708 5.6588 49.4469L62.6582 0.488735C63.0263 0.168945 63.491 0 63.9677 0H79.2601C80.5395 0 81.493 1.20072 81.2033 2.44972L72.2717 41.2892C72.0726 42.2003 71.2639 42.852 70.3224 42.852L55.9414 42.8339C54.662 42.8339 53.7084 41.6452 53.9921 40.3962L59.6105 15.8085L49.2185 34.2599L27.9758 51.4924H106.339C107.618 51.4924 108.571 52.6931 108.282 53.9421V53.924Z" fill="#E1FF83"/>
</svg>
