<svg width="373" height="120" viewBox="0 0 373 120" fill="none" xmlns="http://www.w3.org/2000/svg">
<path d="M108.282 53.924L105.482 66.1243C105.113 67.7474 104.293 69.2317 103.11 70.4264L54.7404 119.409C54.3723 119.789 53.8593 120 53.3222 120H38.1264C36.8349 120 35.8875 118.811 36.1772 117.562L45.1088 78.7108C45.32 77.7997 46.1287 77.1601 47.058 77.1601L61.4391 77.1722C62.7306 77.1842 63.6781 78.3729 63.3884 79.6219L58.1501 102.52L69.1517 82.5L69.1637 82.4879L84.1363 68.6102H2.00167C0.710205 68.6102 -0.237272 67.4216 0.052402 66.1726L2.74999 54.28C3.17847 52.3974 4.19836 50.708 5.6588 49.4469L62.6582 0.488735C63.0263 0.168945 63.491 0 63.9677 0H79.2601C80.5395 0 81.493 1.20072 81.2033 2.44972L72.2717 41.2892C72.0726 42.2003 71.2639 42.852 70.3224 42.852L55.9414 42.8339C54.662 42.8339 53.7084 41.6452 53.9921 40.3962L59.6105 15.8085L49.2185 34.2599L27.9758 51.4924H106.339C107.618 51.4924 108.571 52.6931 108.282 53.9421V53.924Z" fill="#E1FF83"/>
<path d="M272.237 35.7622H246.511C245.762 35.7622 245.11 36.2751 244.935 37.0052L242.872 45.6938C242.63 46.7075 243.403 47.685 244.447 47.685H267.952C268.99 47.685 269.763 48.6504 269.528 49.6641L268.84 52.6387C268.671 53.3748 268.019 53.8937 267.265 53.8937H235.31C234.556 53.8937 233.904 54.4126 233.735 55.1488L230.615 68.6584C230.18 70.547 230.512 72.5321 231.55 74.1673L235.334 80.1709C236.668 82.2827 238.991 83.5679 241.49 83.5679H259.28C260.868 83.5679 262.412 83.049 263.68 82.0896L275.4 73.2019C276.757 72.1701 277.711 70.6978 278.091 69.0386L282.46 50.0442C282.877 48.2401 282.587 46.3455 281.658 44.7526L278.52 39.3764C277.216 37.1439 274.82 35.7682 272.237 35.7682V35.7622ZM243.421 69.6178L244 67.1379C244.169 66.4078 244.821 65.8889 245.575 65.8889H260.904C261.411 65.8889 261.881 65.6536 262.189 65.2493L267.566 58.1898L264.778 70.2996C264.609 71.0297 263.957 71.5546 263.209 71.5546L245.002 71.5969C243.958 71.5969 243.185 70.6315 243.421 69.6118V69.6178Z" fill="#09090B"/>
<path d="M322.236 35.7622H305.586C303.691 35.7622 301.875 36.4983 300.517 37.8197L291.911 46.1886C290.909 47.1661 290.203 48.409 289.889 49.7727L282.575 81.5888C282.34 82.6025 283.112 83.5679 284.15 83.5679H289.352C292.738 83.5679 295.677 81.2328 296.437 77.9384L305.296 39.7566L306.594 46.3817C306.745 47.1419 307.408 47.685 308.181 47.685H320.136C320.884 47.685 321.53 47.1721 321.705 46.448L323.811 37.7594C324.059 36.7397 323.286 35.7622 322.242 35.7622H322.236Z" fill="#09090B"/>
<path d="M356.544 36.2328L348.361 44.9637C347.396 45.9955 348.126 47.685 349.538 47.685H369.381C370.135 47.685 370.787 47.1661 370.956 46.4299L372.959 37.6991C373.189 36.6854 372.422 35.72 371.384 35.72H357.721C357.275 35.72 356.846 35.907 356.544 36.2328Z" fill="#09090B"/>
<path d="M342.012 54.5273L336.889 61.243L345.139 25.7462C345.374 24.7325 344.607 23.7671 343.563 23.7671H333.793C333.039 23.7671 332.387 24.286 332.218 25.0221L319.207 81.5949C318.971 82.6086 319.744 83.574 320.782 83.574H325.972C329.363 83.574 332.302 81.2329 333.063 77.9324L335.543 67.15C335.712 66.4139 336.364 65.895 337.118 65.895H351.439C352.477 65.895 353.249 66.8604 353.014 67.8741L349.858 81.5949C349.622 82.6086 350.395 83.574 351.433 83.574H361.137C361.891 83.574 362.543 83.0551 362.712 82.319L366.58 65.5028C367.069 63.3669 366.58 61.1283 365.229 59.4027L363.122 56.6995C361.746 54.9316 359.628 53.8938 357.383 53.8938H343.292C342.785 53.8938 342.314 54.1291 342.006 54.5273H342.012Z" fill="#09090B"/>
<path d="M197.338 35.7622V35.72H190.121C186.729 35.72 183.79 38.0611 183.03 41.3616L176.072 71.615H176.102L173.32 83.5679L171.026 93.5478C170.791 94.5615 171.563 95.5269 172.601 95.5269H177.798C181.189 95.5269 184.128 93.1858 184.888 89.8853L186.343 83.574H215.087C218.479 83.574 221.418 81.2268 222.178 77.9263L228.472 50.551C228.895 48.7107 228.587 46.7799 227.615 45.1689L224.067 39.2859C222.751 37.1017 220.386 35.7682 217.839 35.7682H197.344L197.338 35.7622ZM209.324 71.609H193.929C193.422 71.609 192.951 71.8503 192.643 72.2485L187.357 79.1814L194.345 48.8193C194.514 48.0832 195.172 47.5583 195.932 47.5643L214.097 47.6669C215.135 47.6669 215.896 48.6383 215.66 49.646L210.899 70.3479C210.73 71.084 210.078 71.6029 209.324 71.6029V71.609Z" fill="#09090B"/>
<path d="M144.431 59.6198L148.559 54.2739C148.866 53.8756 149.337 53.6464 149.838 53.6464H167.327C170.483 53.6464 172.825 56.5667 172.149 59.6439L169.65 70.0462C169.325 71.4098 168.606 72.6528 167.587 73.6242L159.283 81.5044C157.931 82.7896 156.138 83.5015 154.274 83.5015H127.937C126.899 83.5015 126.127 82.5301 126.362 81.5164L128.384 72.8398C128.553 72.1097 129.205 71.5909 129.959 71.5909H154.98C155.728 71.5909 156.38 71.078 156.555 70.3479L159.126 59.4629L154.853 64.9899C154.545 65.3881 154.074 65.6174 153.574 65.6174L136.157 65.6053C133.013 65.6053 130.689 62.685 131.377 59.6198H131.395L133.894 49.2176C134.22 47.8539 134.938 46.611 135.958 45.6395L144.262 37.7594C145.614 36.4742 147.406 35.7622 149.271 35.7622H175.607C176.651 35.7622 177.417 36.7336 177.182 37.7473L175.16 46.4239C174.991 47.154 174.34 47.6729 173.585 47.6729H148.565C147.816 47.6729 147.165 48.1858 146.99 48.9159L144.437 59.6258L144.431 59.6198Z" fill="#09090B"/>
</svg>
